# xmcd
#
# Track frame offsets:
#      182
#      14065
#      27645
#      40350
#      53452
#      68012
#      82437
#      97367
#      111310
#      124607
#      137807
#      149475
#      161952
#      176592
#      191412
#      202930
#      215755
#      230665
#      244995
#      258752
#      272175
#      287895
#      302305
# 
# Disc length: 4208 seconds
#
# Revision: 2
# Processed by: cddbd v1.4PL0 Copyright (c) Steve Scherf et al.
#
# Submitted via: FreeRIP 1.21
#
DISCID=6b106e17
DTITLE=Sonny Boy Williamson - The Bluebird Blues
DYEAR=1998
DGENRE=Blues
TTITLE0=Good Morning Little Schoolgirl
TTITLE1=Moonshine
TTITLE2=Early In The Morning
TTITLE3=Project Highway
TTITLE4=You Give An Account
TTITLE5=Susie Q
TTITLE6=Little Girl Blues
TTITLE7=Blue Bird Blues
TTITLE8=Whiskey Headed Woman
TTITLE9=Jackson Blues
TTITLE10=Got The Bottle Up And Gone
TTITLE11=You've Been Fooling Around Downtown
TTITLE12=Deep Down In The Ground
TTITLE13=Up The Country Blues
TTITLE14=Worried Me Blues
TTITLE15=Black Gal Blues
TTITLE16=Collector Man Blues
TTITLE17=You Can Lead Me
TTITLE18=Miss Louisa Blues
TTITLE19=I'm Tired Of Trucking My Blues Away
TTITLE20=Beauty Parlour
TTITLE21=Until My Love Comes Down
TTITLE22=Sugar Mama Blues
EXTD=
EXTT0=
EXTT1=
EXTT2=
EXTT3=
EXTT4=
EXTT5=
EXTT6=
EXTT7=
EXTT8=
EXTT9=
EXTT10=
EXTT11=
EXTT12=
EXTT13=
EXTT14=
EXTT15=
EXTT16=
EXTT17=
EXTT18=
EXTT19=
EXTT20=
EXTT21=
EXTT22=
PLAYORDER=
